_____ _____  ___________ _____ _____ 
|_   _/  __ /  ___| ___   ___/  ___|
  | | | /  / `--.| |_/ / |__  `--. 
  | | | |     `--.     /|  __| `--. 
  | | | __//__/ / | | |___/__/ /
  _/  ____/____/_| _____/____/ 


         FIX THE WORLD !!!  :)



This movie restored from VHS-Rip...


File List: movie , dvd cover , sample , nfo , txt



RESTORE INFO : 



Junk_Boy_TCSRES.avi


Format                           : AVI
Format/Info                      : Audio Video Interleave
File size                        : 983 MiB
Duration                         : 45mn 28s
Overall bit rate                 : 3 023 Kbps
Writing application              : MEncoder 1.0rc2-4.2.4
Writing library                  : MPlayer



Video
ID                               : 0
Format                           : MPEG-4 Visual
Format profile                   : Simple@L1
Format settings, BVOP            : No
Format settings, QPel            : No
Format settings, GMC             : No warppoints
Format settings, Matrix          : Default (H.263)
Codec ID                         : DX50
Codec ID/Hint                    : DivX 5
Duration                         : 45mn 28s
Bit rate                         : 2 754 Kbps
Width                            : 720 pixels
Height                           : 416 pixels
Display aspect ratio             : 16:9
Frame rate                       : 25.000 fps
Color space                      : YUV
Chroma subsampling               : 4:2:0
Bit depth                        : 8 bits
Scan type                        : Progressive
Bits/(Pixel*Frame)               : 0.368
Stream size                      : 896 MiB (91%)
Writing library                  : Lavc51.44.0



Audio
Language                         : Japanese
ID                               : 1
Format                           : MPEG Audio
Format version                   : Version 1
Format profile                   : Layer 3
Codec ID                         : 55
Codec ID/Hint                    : MP3
Duration                         : 45mn 28s
Bit rate mode                    : Constant
Bit rate                         : 256 Kbps
Channel(s)                       : 2 channels
Sampling rate                    : 44.1 KHz
Stream size                      : 83.3 MiB (8%)
Alignment                        : Aligned on interleaves
Interleave, duration             : 26 ms (0.65 video frame)
Interleave, preload duration     : 522 ms
Writing library                  : LAME3.98





MOVIE INFO :

Year                             :      1987
Categories  	                 :      Erotic Comedy , Ecchi  	
Direction                        : 	Yamada Katsuhisa 	
Assistant Direction              :	Asaka Morio 	
Character Design                 :	Hamasaki Hiroshi 	
Music                            : 	Kudou Takashi 	
Sound Direction                  : 	Honda Yasunori 	
Art Direction                    :	Nagashima Youko 	
Photographic Direction           : 	Ishikawa Kin`ichi 	
Producer                         :	Iwase Yasuteru 	
                                        Maruyama Masao 	
                                        Satou Tomoko 	
Planning                         : 	Satou Tomoko 	
 	
Animation Work                   :	Madhouse 	
Production                       :	Suda Hideaki 	
Script/Screenplay                :	Fukushima Hiroyuki 	
                                        Urahata Tatsuhiko 	
Animation Direction              : 	Hamasaki Hiroshi 
Colour Specification             : 	Katayama Yumiko	
Key Animation                    :	Inagaki Kengo 	
                                        Kanemori Yoshinori 	
                                        Kurihara Reiko 	
                                        Nishijima Katsuhiko 	
                                        Noda Takuo 	
                                        Okamura Yutaka 	
                                        Sakurai Kunihiko 	
                                        Shinkawa Nobumasa 	
                                        Takei Masaki 	

